<svg xmlns="http://www.w3.org/2000/svg" viewBox="0 0 500 500"><ellipse ry="249.228" rx="249.228" cy="250" cx="250" fill="#ff5252"/><path d="M332.104 90.425q2.09 0 5.434 3.344 3.552 3.344 7.314 8.778 6.06-10.659 9.613-10.659 3.135 0 8.569 5.643 3.344 3.553 3.344 7.941 0 5.643-4.598 10.45-43.469 47.23-84.43 103.865 16.928 41.379 46.813 91.326 2.508 4.18 2.508 6.687 0 4.807-6.27 10.032l-6.688 4.597q.836 2.508.836 6.688 0 6.27-4.597 9.613-5.434 3.762-7.942 3.762-5.433 0-9.613-5.434-25.078-32.183-51.828-75.652-35.945 46.812-82.34 124.973-6.687 11.285-22.57 11.285-7.524 0-8.36-8.778-10.658-5.851-10.658-18.6 0-16.718 2.3-23.196 1.044-2.926 6.687-11.704 42.632-66.457 90.28-122.046-25.495-60.606-33.855-93.417-1.88-7.314-1.88-9.404 0-2.926 3.761-8.36 3.97-5.433 7.315-5.433 3.134 0 7.941 6.06 1.88-3.552 4.598-6.06 3.761-3.344 9.613-3.344 6.687 0 8.777 6.27 11.285 35.11 29.676 66.875 29.676-38.453 72.309-81.086 5.015-5.016 7.941-5.016z" font-size="428" font-family="Roboto" word-spacing="0" fill="#fff"/></svg>